# xmcd
#
# Track frame offsets:
#	188
#	13838
#	26513
#	37538
#	48038
#	59888
#	73088
#	83813
#	98588
#	109388
#	123263
#	134438
#
# Disc length: 1922 seconds
#
# Revision: 1
# Processed by: cddbd v1.5.2PL0 Copyright (c) Steve Scherf et al.
# Submitted via: audiograbber 1.83.01
#
DISCID=9b07800c
DTITLE=Ben E. King - Stand By Me
DYEAR=1991
DGENRE=Soul
TTITLE0=Stand By Me
TTITLE1=Don't Play That Song
TTITLE2=This Magic Moment
TTITLE3=Young Boy Blues
TTITLE4=Goodnight My Love
TTITLE5=Spanish Harlem
TTITLE6=How Can I Forget
TTITLE7=It's All Over
TTITLE8=I (Who Have Nothing)
TTITLE9=Amor
TTITLE10=Save The Last Dance For Me
TTITLE11=I Count The Tears
EXTD=
EXTT0=
EXTT1=
EXTT2=
EXTT3=
EXTT4=
EXTT5=
EXTT6=
EXTT7=
EXTT8=
EXTT9=
EXTT10=
EXTT11=
PLAYORDER=
